<svg width="17" height="42" viewBox="0 0 17 42" fill="none" xmlns="http://www.w3.org/2000/svg">
<path d="M6.72806 41.4778C4.62674 36.8223 1.37103 31.4978 0.478195 26.43C0.397028 25.9809 0.974217 25.4861 1.32594 25.9259C3.65273 28.7944 5.27607 32.6525 6.80021 36.3274C10.4076 23.8182 8.26122 10.6399 0.0543239 0.403359C-0.126047 0.174251 0.180584 -0.146499 0.369974 0.0734438C9.13602 10.1725 12.3917 24.7346 7.9095 37.5554C7.82833 37.7845 7.67501 37.922 7.49464 37.9862C7.55777 38.1236 7.61188 38.2703 7.67501 38.4077C9.7583 34.2563 12.3196 30.3706 15.1424 26.6774C16.0262 25.5135 17.6225 27.1448 16.7387 28.2995C13.5551 32.4234 10.9488 36.8406 8.54981 41.4686C8.20711 42.1468 7.05273 42.2017 6.72806 41.4778Z" fill="#18262F"/>
</svg>
