<svg width="121" height="59" viewBox="0 0 121 59" fill="none" xmlns="http://www.w3.org/2000/svg">
<path d="M0.849946 44.7697C6.14816 41.5031 11.6739 38.6413 17.4621 36.3627C18.1183 36.1076 18.4822 37.072 17.8679 37.377C13.1431 39.726 8.52228 42.2257 4.01103 44.9629C47.3125 50.5138 90.6046 33.0616 119.622 0.866065C119.919 0.532735 120.463 0.94423 120.176 1.30308C92.8452 35.2363 47.2857 52.1599 4.36463 46.8491C7.94907 49.9958 11.5774 53.5985 13.9218 57.5817C14.4276 58.445 13.4025 59.2176 12.7112 58.51C8.71116 54.3973 5.25239 49.9794 0.859938 46.2161C0.448765 45.8626 0.335189 45.0866 0.849946 44.7697Z" fill="#18262F"/>
</svg>
