<svg width="419" height="65" viewBox="0 0 419 65" fill="none" xmlns="http://www.w3.org/2000/svg">
<path d="M30.1025 5.25L0 58.75H20.1565C21.969 58.75 23.6396 57.7691 24.5228 56.1863L41.6111 25.5602L61.8544 32L74.6956 8.19967C75.4145 6.86716 74.4495 5.25 72.9354 5.25H53.6071L50.7206 12.3555L30.1025 5.25Z" fill="white"/>
<path d="M45.068 32L32.2937 55.8043C31.5787 57.1367 32.5439 58.75 34.056 58.75H50.7298C52.5505 58.75 54.2273 57.7603 55.1072 56.1662L57.3723 52.0625L76.6492 58.75L107 5.25H87.3795C85.5661 5.25 83.8947 6.23193 83.012 7.81605L65.5752 39.1055L45.068 32Z" fill="white"/>
<mask id="mask0_27:437" style="mask-type:alpha" maskUnits="userSpaceOnUse" x="0" y="5" width="107" height="54">
<path d="M30.1025 5.25L0 58.75H20.1565C21.969 58.75 23.6396 57.7691 24.5228 56.1863L41.6111 25.5602L61.8544 32L76.287 5.25H53.6071L50.7206 12.3555L30.1025 5.25Z" fill="white"/>
<path d="M45.068 32L30.7129 58.75H47.7785C51.42 58.75 54.7737 56.7705 56.5334 53.5824L57.3723 52.0625L76.6492 58.75L107 5.25H84.4419L65.5752 39.1055L45.068 32Z" fill="white"/>
</mask>
<g mask="url(#mask0_27:437)">
<path d="M29.7221 4.75462L50.5277 12.1851L76.7824 58.75L57.463 52.8055L29.7221 4.75462Z" fill="#FE4A4A"/>
</g>
<path d="M116 44.5927L123.736 23.5822C124.123 22.5413 124.759 21.7607 125.645 21.2402C126.531 20.6971 127.531 20.4256 128.644 20.4256C129.757 20.4256 130.757 20.6858 131.643 21.2063C132.529 21.7041 133.166 22.4848 133.552 23.5483L141.322 44.5927H135.154L133.654 40.0104H123.532L121.964 44.5927H116ZM124.997 35.2924H132.189L129.155 25.8225C129.064 25.5735 128.905 25.4491 128.678 25.4491C128.451 25.4491 128.303 25.5735 128.235 25.8225L124.997 35.2924Z" fill="white"/>
<path d="M151.859 45C153.768 45 155.415 44.6153 156.801 43.846C158.21 43.0766 159.3 41.9904 160.073 40.5875C160.845 39.1619 161.231 37.4874 161.231 35.564V19.8146H155.949V29.0809H155.847C155.324 28.3568 154.62 27.7911 153.734 27.3838C152.87 26.9765 151.916 26.7728 150.871 26.7728C149.235 26.7728 147.781 27.1462 146.508 27.8929C145.259 28.6397 144.27 29.6806 143.543 31.0157C142.839 32.3281 142.487 33.8555 142.487 35.5979C142.487 37.4082 142.862 39.0261 143.611 40.4517C144.361 41.8773 145.429 42.9974 146.815 43.812C148.224 44.604 149.905 45 151.859 45ZM151.859 40.4517C150.655 40.4517 149.689 40.0218 148.962 39.1619C148.235 38.2794 147.872 37.1932 147.872 35.9034C147.872 34.6362 148.235 33.5727 148.962 32.7128C149.689 31.8303 150.655 31.389 151.859 31.389C153.086 31.389 154.052 31.8303 154.756 32.7128C155.483 33.5727 155.847 34.6362 155.847 35.9034C155.847 37.1932 155.483 38.2794 154.756 39.1619C154.052 40.0218 153.086 40.4517 151.859 40.4517Z" fill="white"/>
<path d="M173.013 45C171.968 45 171.014 44.7285 170.15 44.1854C169.287 43.6423 168.696 42.9069 168.378 41.9791L163.402 27.1802H169.196L172.706 39.6031C172.775 39.7842 172.888 39.8747 173.047 39.8747C173.229 39.8747 173.343 39.7842 173.388 39.6031L176.967 27.1802H182.624L177.648 41.9791C177.33 42.9069 176.739 43.6423 175.876 44.1854C175.035 44.7285 174.081 45 173.013 45Z" fill="white"/>
<path d="M193.409 44.5927C191.432 44.5927 189.694 44.2306 188.195 43.5065C186.695 42.7598 185.525 41.7415 184.684 40.4517C183.866 39.1392 183.457 37.6231 183.457 35.9034C183.457 34.0026 183.855 32.3734 184.65 31.0157C185.446 29.658 186.502 28.6171 187.82 27.8929C189.16 27.1462 190.637 26.7728 192.25 26.7728C194.091 26.7728 195.624 27.1575 196.851 27.9269C198.101 28.6963 199.044 29.7485 199.68 31.0836C200.316 32.4186 200.634 33.9234 200.634 35.5979C200.634 35.9147 200.612 36.2654 200.566 36.6501C200.544 37.0348 200.509 37.3403 200.464 37.5666H189.013C189.217 38.4717 189.694 39.1506 190.444 39.6031C191.194 40.0331 192.125 40.248 193.239 40.248H198.59V44.5927H193.409ZM188.876 34.2741H195.522C195.454 33.3238 195.147 32.5431 194.602 31.9321C194.057 31.3211 193.273 31.0157 192.25 31.0157C191.183 31.0157 190.376 31.3551 189.831 32.0339C189.308 32.6902 188.99 33.4369 188.876 34.2741Z" fill="white"/>
<path d="M203.576 44.5927V32.3055C203.576 30.7215 204.019 29.4769 204.905 28.5718C205.814 27.6667 207.086 27.2141 208.722 27.2141H213.8V31.4909H210.017C209.677 31.4909 209.393 31.604 209.165 31.8303C208.961 32.0566 208.859 32.3281 208.859 32.6449V44.5927H203.576Z" fill="white"/>
<path d="M216.194 44.5927V40.4178H224.612C224.953 40.4178 225.237 40.3046 225.464 40.0783C225.714 39.852 225.839 39.5805 225.839 39.2637C225.839 38.9243 225.714 38.6414 225.464 38.4151C225.237 38.1889 224.953 38.0757 224.612 38.0757H221.545C220.409 38.0757 219.375 37.8947 218.443 37.5326C217.535 37.148 216.808 36.5596 216.262 35.7676C215.74 34.9756 215.478 33.9234 215.478 32.611C215.478 31.6153 215.717 30.7102 216.194 29.8956C216.694 29.0809 217.364 28.4247 218.205 27.9269C219.068 27.4291 220.011 27.1802 221.034 27.1802H229.452V31.389H221.852C221.534 31.389 221.261 31.4909 221.034 31.6945C220.829 31.8982 220.727 32.1471 220.727 32.4413C220.727 32.758 220.829 33.0296 221.034 33.2559C221.261 33.4595 221.534 33.5614 221.852 33.5614H224.851C226.759 33.5614 228.27 33.9913 229.384 34.8512C230.497 35.7111 231.054 37.114 231.054 39.0601C231.054 40.0783 230.792 41.0061 230.27 41.8433C229.77 42.6806 229.088 43.3481 228.225 43.846C227.361 44.3438 226.407 44.5927 225.362 44.5927H216.194Z" fill="white"/>
<path d="M234.232 44.5927V27.1802H239.549V44.5927H234.232ZM236.891 25.2115C236.05 25.2115 235.323 24.906 234.71 24.295C234.096 23.6841 233.789 22.96 233.789 22.1227C233.789 21.2628 234.096 20.5274 234.71 19.9164C235.323 19.3055 236.05 19 236.891 19C237.754 19 238.481 19.3055 239.072 19.9164C239.685 20.5274 239.992 21.2628 239.992 22.1227C239.992 22.96 239.685 23.6841 239.072 24.295C238.481 24.906 237.754 25.2115 236.891 25.2115Z" fill="white"/>
<path d="M252.075 45C250.28 45 248.667 44.604 247.236 43.812C245.804 43.02 244.668 41.9452 243.827 40.5875C243.009 39.2071 242.6 37.6458 242.6 35.9034C242.6 34.161 243.009 32.611 243.827 31.2533C244.668 29.8729 245.804 28.7868 247.236 27.9948C248.667 27.1802 250.28 26.7728 252.075 26.7728C253.87 26.7728 255.472 27.1802 256.881 27.9948C258.312 28.7868 259.437 29.8729 260.255 31.2533C261.095 32.611 261.516 34.161 261.516 35.9034C261.516 37.6458 261.095 39.2071 260.255 40.5875C259.437 41.9452 258.312 43.02 256.881 43.812C255.449 44.604 253.847 45 252.075 45ZM252.075 40.4178C253.325 40.4178 254.324 39.9878 255.074 39.1279C255.824 38.2454 256.199 37.1593 256.199 35.8695C256.199 34.6023 255.824 33.5387 255.074 32.6789C254.324 31.7963 253.325 31.3551 252.075 31.3551C250.803 31.3551 249.792 31.7963 249.042 32.6789C248.292 33.5387 247.917 34.6023 247.917 35.8695C247.917 37.1593 248.292 38.2454 249.042 39.1279C249.792 39.9878 250.803 40.4178 252.075 40.4178Z" fill="white"/>
<path d="M264.653 44.5927V34.5796C264.653 33.1314 265.005 31.819 265.709 30.6423C266.413 29.4656 267.413 28.5265 268.708 27.8251C270.026 27.1236 271.583 26.7728 273.377 26.7728C275.172 26.7728 276.717 27.1236 278.012 27.8251C279.308 28.5265 280.296 29.4656 280.978 30.6423C281.659 31.819 282 33.1314 282 34.5796V44.5927H276.717V34.7154C276.717 33.8103 276.388 33.0296 275.729 32.3734C275.093 31.6945 274.298 31.3551 273.343 31.3551C272.366 31.3551 271.548 31.6945 270.89 32.3734C270.253 33.0296 269.935 33.8103 269.935 34.7154V44.5927H264.653Z" fill="white"/>
<path d="M306.087 43.5626C304.459 43.5626 303.204 43.1027 302.323 42.183C301.441 41.2409 301 39.9735 301 38.3809V20.0431H301.848V38.5491C301.848 39.8053 302.221 40.8259 302.967 41.611C303.713 42.3961 304.775 42.7887 306.154 42.7887H312.631V43.5626H306.087Z" fill="white"/>
<path d="M322.793 43.5626C321.256 43.5626 320.046 43.1252 319.164 42.2503C318.305 41.3755 317.876 40.1866 317.876 38.6837V27.1763H314.824V26.4024H317.876V22.0956H318.724V26.4024H326.218V27.1763H318.724V38.3472C318.724 39.7829 319.074 40.882 319.775 41.6447C320.498 42.4074 321.583 42.7887 323.03 42.7887H326.082V43.5626H322.793Z" fill="white"/>
<path d="M337.675 44C339.077 44 340.422 43.6747 341.71 43.0242C343.021 42.3737 344.084 41.3979 344.898 40.0969C345.734 38.7959 346.153 37.1808 346.153 35.2517V19H345.305V30.8775H345.203C344.796 29.9354 344.208 29.1054 343.44 28.3876C342.671 27.6474 341.789 27.0642 340.795 26.638C339.8 26.2118 338.749 25.9987 337.641 25.9987C336.172 25.9987 334.781 26.3463 333.47 27.0417C332.181 27.7371 331.13 28.7577 330.316 30.1036C329.502 31.4271 329.095 33.0534 329.095 34.9825C329.095 36.4854 329.333 37.8089 329.808 38.9529C330.305 40.0745 330.961 41.0166 331.774 41.7793C332.611 42.5195 333.538 43.0803 334.555 43.4616C335.572 43.8205 336.612 44 337.675 44ZM337.709 43.2261C336.42 43.2261 335.177 42.9233 333.979 42.3176C332.803 41.6895 331.831 40.7699 331.062 39.5585C330.316 38.3248 329.943 36.7995 329.943 34.9825C329.943 33.2553 330.316 31.786 331.062 30.5747C331.808 29.341 332.758 28.3988 333.911 27.7483C335.086 27.0978 336.318 26.7725 337.607 26.7725C338.896 26.7725 340.128 27.0866 341.303 27.7147C342.479 28.3203 343.44 29.24 344.186 30.4738C344.932 31.6851 345.305 33.2104 345.305 35.0498C345.305 36.8668 344.932 38.3809 344.186 39.5922C343.462 40.8035 342.513 41.712 341.337 42.3176C340.184 42.9233 338.975 43.2261 337.709 43.2261Z" fill="white"/>
<path d="M351.118 43.7981C350.892 43.7981 350.689 43.7084 350.508 43.5289C350.327 43.3495 350.237 43.1476 350.237 42.9233C350.237 42.6765 350.327 42.4747 350.508 42.3176C350.689 42.1382 350.892 42.0485 351.118 42.0485C351.367 42.0485 351.57 42.1382 351.729 42.3176C351.91 42.4747 352 42.6765 352 42.9233C352 43.1476 351.91 43.3495 351.729 43.5289C351.57 43.7084 351.367 43.7981 351.118 43.7981Z" fill="white"/>
</svg>
