<svg width="197" height="58" viewBox="0 0 197 58" fill="none" xmlns="http://www.w3.org/2000/svg">
<path d="M24.0337 18.6194C23.365 18.6194 22.7356 18.7075 22.1463 18.8831C21.5557 19.0649 20.9897 19.3146 20.4507 19.6335C19.9096 19.9557 19.3914 20.3426 18.8945 20.797C18.3964 21.2514 17.9052 21.757 17.4226 22.3142C16.4988 19.8529 14.4944 18.6194 11.4095 18.6194C10.2996 18.6194 9.23011 18.879 8.1999 19.3977C7.16807 19.916 6.19226 20.6992 5.26798 21.737V19.0898H0V39.9849H5.41725V25.5591C6.15668 24.6199 6.90223 23.9047 7.65679 23.4102C8.40889 22.9205 9.17612 22.6761 9.95849 22.6761C10.9106 22.6761 11.5968 22.9897 12.0168 23.6259C12.436 24.2572 12.6463 25.3003 12.6463 26.7537V39.9849H18.0611V25.5591C18.7878 24.6199 19.526 23.9047 20.2801 23.4102C21.0327 22.9205 21.7938 22.6761 22.5622 22.6761C23.5286 22.6761 24.2214 22.9897 24.641 23.6259C25.0602 24.2572 25.2704 25.3003 25.2704 26.7537V39.9849H30.6856V26.3271C30.6856 21.1884 28.4686 18.6194 24.0337 18.6194Z" fill="white"/>
<path d="M40.1969 27.394C40.4108 25.5739 40.9396 24.2135 41.7853 23.3173C42.6311 22.4174 43.7153 21.972 45.0375 21.972C46.374 21.972 47.4652 22.4174 48.3105 23.3173C49.1567 24.2135 49.6867 25.5739 49.8998 27.394H40.1969ZM52.5761 21.4046C51.6731 20.4896 50.5852 19.7945 49.3137 19.3241C48.0402 18.8545 46.6157 18.6195 45.0375 18.6195C43.3881 18.6195 41.9211 18.8643 40.6341 19.354C39.347 19.8481 38.2575 20.5625 37.3615 21.5025C36.4658 22.4412 35.7796 23.5863 35.3031 24.9377C34.8267 26.2883 34.5891 27.8243 34.5891 29.5474C34.5891 31.2407 34.8299 32.7632 35.3142 34.1175C35.7972 35.4693 36.4932 36.6148 37.4036 37.5535C38.3136 38.4939 39.4325 39.2177 40.7625 39.7213C42.0912 40.2248 43.6163 40.4807 45.3364 40.4807C46.6157 40.4807 47.7985 40.3337 48.8863 40.0402C49.9738 39.7504 50.9332 39.3152 51.7655 38.7375C52.5969 38.1599 53.2857 37.4561 53.8337 36.6148C54.3813 35.778 54.7543 34.8139 54.9534 33.7319H49.8998C49.544 34.9166 48.9755 35.7477 48.1939 36.2324C47.4116 36.7118 46.4595 36.9575 45.3364 36.9575C44.6113 36.9575 43.9427 36.8347 43.3325 36.5947C42.7202 36.3503 42.1882 35.9778 41.733 35.4742C41.2774 34.9699 40.9114 34.3197 40.6341 33.5313C40.3564 32.7383 40.1969 31.7979 40.1544 30.7023H55.38V29.4009C55.38 27.6777 55.1387 26.1462 54.6557 24.7997C54.1711 23.4553 53.4783 22.3245 52.5761 21.4046" fill="white"/>
<path d="M65.8857 36.2322C65.644 36.1442 65.4375 35.9825 65.2678 35.7475C65.0968 35.5129 64.968 35.1895 64.8841 34.7698C64.7983 34.3482 64.7557 33.8049 64.7557 33.1347V23.0837H68.1457V19.0901H64.7557V16.7913H59.361C59.361 16.7913 59.3655 33.2375 59.3704 33.766C59.3773 34.5832 59.435 35.3323 59.5417 36.0177C59.6477 36.7014 59.8157 37.3089 60.0427 37.8423C60.2701 38.3758 60.6075 38.8261 61.0562 39.1978C61.5032 39.5704 62.0753 39.8533 62.7718 40.049C63.4687 40.2496 64.3361 40.3474 65.3737 40.3474C65.97 40.3474 66.5213 40.3237 67.0263 40.2647C67.531 40.2066 68.0173 40.1272 68.4872 40.0301V36.2518C67.8606 36.321 67.2717 36.3591 66.7172 36.3591C66.4043 36.3591 66.1266 36.3161 65.8857 36.2322Z" fill="white"/>
<path d="M84.48 34.5003C84.2096 34.8716 83.8861 35.2106 83.5103 35.5131C83.134 35.8218 82.7238 36.0765 82.2838 36.2816C81.8425 36.492 81.3738 36.6529 80.8765 36.7757C80.3788 36.8977 79.8741 36.9575 79.3629 36.9575C78.2533 36.9575 77.3642 36.7167 76.6976 36.2423C76.0289 35.7629 75.6956 35.0337 75.6956 34.0549C75.6956 32.7432 76.2486 31.7979 77.3573 31.226C78.4681 30.6483 80.1444 30.3597 82.3905 30.3597H84.48V34.5003ZM87.3808 20.176C86.4847 19.5935 85.4791 19.1882 84.3634 18.9622C83.2465 18.7325 81.9566 18.6195 80.4917 18.6195C74.4646 18.6195 71.309 20.7684 71.0239 25.0646H75.8874C75.986 24.0427 76.3942 23.2686 77.1127 22.7503C77.8305 22.2316 78.8942 21.972 80.3003 21.972C81.0822 21.972 81.7509 22.0551 82.305 22.2169C82.8608 22.3786 83.2637 22.6471 83.5213 23.0189C83.7606 23.2297 83.9475 23.4794 84.0738 23.7631C84.2035 24.0468 84.3012 24.3592 84.3744 24.7031C84.4452 25.2165 84.48 26.0197 84.48 27.1152H82.6678C74.3366 27.1152 70.1716 29.5327 70.1716 34.3734C70.1716 35.3711 70.3602 36.2476 70.7364 37.0103C71.1135 37.7697 71.6243 38.4051 72.2721 38.9185C72.9179 39.4327 73.6823 39.8195 74.564 40.0832C75.4466 40.3477 76.3982 40.4807 77.4219 40.4807C78.8991 40.4807 80.2221 40.2789 81.3877 39.8785C82.5541 39.4818 83.599 38.8755 84.5229 38.0673V39.9849H89.8755V26.4741C89.8755 24.7821 89.6698 23.4442 89.2568 22.4613C88.8449 21.4787 88.2192 20.7193 87.3808 20.176" fill="white"/>
<path d="M143.252 23.3131C143.845 22.5978 144.567 22.0636 145.412 21.6939C146.258 21.3324 147.204 21.1494 148.251 21.1494C149.006 21.1494 149.719 21.2526 150.379 21.4503C151.042 21.6481 151.62 21.9387 152.118 22.3113C152.614 22.6879 153.013 23.1415 153.317 23.675C153.62 24.2055 153.79 24.8037 153.832 25.4599H156.661C156.56 24.443 156.269 23.5231 155.794 22.6961C155.317 21.8728 154.702 21.1666 153.947 20.5804C153.193 19.9949 152.326 19.5475 151.349 19.2249C150.37 18.9072 149.33 18.7483 148.234 18.7483C146.758 18.7483 145.422 19.003 144.227 19.5086C143.033 20.017 142.013 20.7429 141.167 21.6833C140.322 22.6179 139.67 23.756 139.215 25.0833C138.758 26.415 138.531 27.8983 138.531 29.5395C138.531 31.1939 138.756 32.68 139.207 34.0113C139.658 35.3431 140.306 36.4759 141.145 37.4117C141.986 38.3505 143.006 39.078 144.206 39.5864C145.403 40.0908 146.748 40.3467 148.234 40.3467C149.393 40.3467 150.463 40.1907 151.448 39.8771C152.433 39.5623 153.294 39.1128 154.032 38.5146C154.77 37.9161 155.366 37.1911 155.825 36.3248C156.28 35.4667 156.56 34.4809 156.661 33.3755H153.832C153.772 34.1133 153.594 34.7695 153.303 35.3353C153.009 35.9064 152.619 36.387 152.133 36.7833C151.644 37.1788 151.066 37.4748 150.395 37.6766C149.724 37.8784 148.982 37.9751 148.174 37.9751C147.137 37.9751 146.204 37.7892 145.373 37.4117C144.543 37.0404 143.829 36.4959 143.236 35.7807C142.642 35.0716 142.187 34.1902 141.868 33.1414C141.55 32.0933 141.39 30.893 141.39 29.5395C141.39 28.184 141.552 26.989 141.875 25.9455C142.198 24.9044 142.657 24.0274 143.252 23.3131Z" fill="white"/>
<path d="M173.156 26.9664C172.977 27.4507 172.69 27.8552 172.293 28.1839C171.897 28.5155 171.393 28.7591 170.772 28.922C170.151 29.0887 169.401 29.1706 168.518 29.1706H163.229V21.6271H168.427C169.103 21.6271 169.744 21.675 170.349 21.7638C170.951 21.8567 171.484 22.0365 171.94 22.3042C172.398 22.5719 172.757 22.9437 173.025 23.421C173.29 23.8947 173.424 24.5211 173.424 25.292C173.424 25.9253 173.335 26.4886 173.156 26.9664ZM173.84 20.3702C173.1 19.917 172.251 19.5981 171.287 19.4192C170.322 19.2366 169.317 19.1519 168.273 19.1519H160.476V39.9749H163.229V31.6482H168.457C171.012 31.6482 172.949 31.1037 174.278 30.0168C175.606 28.9298 176.268 27.3336 176.268 25.231C176.268 24.0155 176.048 23.0215 175.608 22.2342C175.168 21.4502 174.578 20.8287 173.84 20.3702" fill="white"/>
<path d="M183.497 31.4333L186.988 21.799L190.664 31.4333H183.497ZM188.512 19.1519H185.528L177.546 39.9749H180.453L182.745 33.6469H191.466L193.879 39.9749H197L188.512 19.1519V19.1519Z" fill="white"/>
<path d="M98.2685 8.20605C96.831 10.3738 96.3169 12.9653 96.8253 15.5051C97.3299 18.0577 98.7998 20.25 100.955 21.6886L117.79 32.9441C119.389 34.011 121.246 34.5759 123.165 34.5759C123.773 34.5759 124.381 34.517 124.975 34.4097L125.162 34.3733L132.122 29.7234L98.7855 7.44009L98.2685 8.20605V8.20605Z" fill="url(#paint0_linear_303:703)"/>
<path d="M117.79 26.496L100.955 37.7445C98.7998 39.186 97.3299 41.3828 96.8253 43.9349C96.3169 46.4773 96.831 49.0663 98.2685 51.2271L98.7855 52L132.122 29.7233L125.161 25.0664L124.975 25.0357C124.378 24.9227 123.773 24.865 123.165 24.865C121.246 24.865 119.389 25.4296 117.79 26.496" fill="url(#paint1_linear_303:703)"/>
<path d="M117.79 26.4961C119.389 25.4292 121.246 24.865 123.165 24.865C123.774 24.865 124.378 24.9232 124.975 25.0357L125.135 25.0628C124.538 24.7369 122.195 23.5677 119.196 23.5677C116.119 23.5677 113.392 24.7692 111.083 27.1421L110.307 27.9445L112.965 29.7217L117.79 26.4961V26.4961Z" fill="url(#paint2_linear_303:703)"/>
<defs>
<linearGradient id="paint0_linear_303:703" x1="95.7223" y1="11.8477" x2="129.212" y2="34.0415" gradientUnits="userSpaceOnUse">
<stop stop-color="#DA1C5C"/>
<stop offset="0.47619" stop-color="#ED1C24"/>
<stop offset="1" stop-color="#F9B836"/>
</linearGradient>
<linearGradient id="paint1_linear_303:703" x1="95.6094" y1="47.6569" x2="139.111" y2="22.375" gradientUnits="userSpaceOnUse">
<stop stop-color="#DA1C5C"/>
<stop offset="0.47619" stop-color="#ED1C24"/>
<stop offset="1" stop-color="#F9B836"/>
</linearGradient>
<linearGradient id="paint2_linear_303:703" x1="110.235" y1="21.9887" x2="120.332" y2="28.1655" gradientUnits="userSpaceOnUse">
<stop stop-color="#DA1C5C"/>
<stop offset="0.47619" stop-color="#ED1C24"/>
<stop offset="1" stop-color="#ED1C24"/>
</linearGradient>
</defs>
</svg>
